<?xml version="1.0" encoding="UTF-8" standalone="no"?>
<svg xmlns:dc="http://purl.org/dc/elements/1.1/" xmlns:cc="http://creativecommons.org/ns#" xmlns:rdf="http://www.w3.org/1999/02/22-rdf-syntax-ns#" xmlns:svg="http://www.w3.org/2000/svg" xmlns="http://www.w3.org/2000/svg" viewBox="0 0 278.92499 252" height="126" width="140" xml:space="preserve" version="1.1" id="svg2"><metadata id="metadata8"><rdf:RDF><cc:Work rdf:about=""><dc:format>image/svg+xml</dc:format><dc:type rdf:resource="http://purl.org/dc/dcmitype/StillImage"/></cc:Work></rdf:RDF></metadata><defs id="defs6"><clipPath id="clipPath16" clipPathUnits="userSpaceOnUse"><path id="path18" d="m 0,0 223.14,0 0,201.6 L 0,201.6 0,0 Z"/></clipPath><clipPath id="clipPath28" clipPathUnits="userSpaceOnUse"><path id="path30" d="m 0,0 223.14,0 0,201.6 L 0,201.6 0,0 Z"/></clipPath><clipPath id="clipPath40" clipPathUnits="userSpaceOnUse"><path id="path42" d="m 0,0 223.14,0 0,201.6 L 0,201.6 0,0 Z"/></clipPath><clipPath id="clipPath52" clipPathUnits="userSpaceOnUse"><path id="path54" d="m 0,0 223.14,0 0,201.6 L 0,201.6 0,0 Z"/></clipPath><clipPath id="clipPath64" clipPathUnits="userSpaceOnUse"><path id="path66" d="m 0,0 223.14,0 0,201.6 L 0,201.6 0,0 Z"/></clipPath><clipPath id="clipPath76" clipPathUnits="userSpaceOnUse"><path id="path78" d="m 0,0 223.14,0 0,201.6 L 0,201.6 0,0 Z"/></clipPath><clipPath id="clipPath88" clipPathUnits="userSpaceOnUse"><path id="path90" d="m 0,0 223.14,0 0,201.6 L 0,201.6 0,0 Z"/></clipPath><clipPath id="clipPath100" clipPathUnits="userSpaceOnUse"><path id="path102" d="m 0,0 223.14,0 0,201.6 L 0,201.6 0,0 Z"/></clipPath><clipPath id="clipPath112" clipPathUnits="userSpaceOnUse"><path id="path114" d="m 0,0 223.14,0 0,201.6 L 0,201.6 0,0 Z"/></clipPath><clipPath id="clipPath124" clipPathUnits="userSpaceOnUse"><path id="path126" d="m 0,0 223.14,0 0,201.6 L 0,201.6 0,0 Z"/></clipPath><clipPath id="clipPath136" clipPathUnits="userSpaceOnUse"><path id="path138" d="m 0,0 223.14,0 0,201.6 L 0,201.6 0,0 Z"/></clipPath><clipPath id="clipPath148" clipPathUnits="userSpaceOnUse"><path id="path150" d="m 0,0 223.14,0 0,201.6 L 0,201.6 0,0 Z"/></clipPath><clipPath id="clipPath160" clipPathUnits="userSpaceOnUse"><path id="path162" d="m 0,0 223.14,0 0,201.6 L 0,201.6 0,0 Z"/></clipPath></defs><g transform="matrix(1.25,0,0,-1.25,0,252)" id="g10"><g id="g12"><g clip-path="url(#clipPath16)" id="g14"><g transform="translate(92.58,38.1)" id="g20"><path id="path22" style="fill:#ffd449;fill-opacity:1;fill-rule:evenodd;stroke:none" d="m 0,0 c 1.979,-9.056 3.736,-16.916 10.466,-22.251 6.731,-5.335 20.076,-7.861 29.917,-9.759 9.841,-1.897 19.21,-2.342 29.129,-1.628 9.918,0.713 23.616,1.185 30.382,5.91 6.765,4.726 26.797,17.822 10.211,22.443 L 0,0 Z"/></g></g></g><g id="g24"><g clip-path="url(#clipPath28)" id="g26"><g transform="translate(184.45,99.6415)" id="g32"><path id="path34" style="fill:#ffd449;fill-opacity:1;fill-rule:evenodd;stroke:none" d="m 0,0 c -3.568,12.471 -0.268,35.098 2.141,51.311 2.409,16.213 8.297,46.233 12.311,45.966 3.926,-9.265 7.583,-18.529 9.635,-32.604 2.052,-14.075 2.944,-37.86 2.677,-51.845 -0.268,-13.986 -3.39,-22.449 -4.282,-32.07 L 0,0 Z"/></g></g></g><g id="g36"><g clip-path="url(#clipPath40)" id="g38"><g transform="translate(97.5,70.68)" id="g44"><path id="path46" style="fill:#ffd449;fill-opacity:1;fill-rule:evenodd;stroke:none" d="m 0,0 c 0,26.41 24.727,47.82 55.23,47.82 30.503,0 55.23,-21.41 55.23,-47.82 0,-26.41 -24.727,-47.82 -55.23,-47.82 C 24.727,-47.82 0,-26.41 0,0"/></g></g></g><g id="g48"><g clip-path="url(#clipPath52)" id="g50"><g transform="translate(112.5235,89.0821)" id="g56"><path id="path58" style="fill:#ffd449;fill-opacity:1;fill-rule:evenodd;stroke:none" d="m 0,0 c -17.374,-5.384 -13.134,-31.009 -16.492,-40.343 -3.358,-9.334 -2.423,-36.407 8.714,-22.411 11.939,-21.574 21.9,-3.192 31.701,-6.579 l 25.125,-5.349 32.61,6.953 c 5.667,-0.035 6.085,0.679 11.752,0.644 2.174,15.975 4.306,20.396 1.585,29.657 0,17.383 4.1,30.856 -11.733,37.094 C 67.43,5.904 19.067,4.636 0,0"/></g></g></g><g id="g60"><g clip-path="url(#clipPath64)" id="g62"><g transform="translate(119.28,76.89)" id="g68"><path id="path70" style="fill:#000000;fill-opacity:1;fill-rule:evenodd;stroke:none" d="m 0,0 c 0,-3.43 2.767,-6.21 6.18,-6.21 3.413,0 6.18,2.78 6.18,6.21 0,3.43 -2.767,6.21 -6.18,6.21 C 2.767,6.21 0,3.43 0,0"/></g></g></g><g id="g72"><g clip-path="url(#clipPath76)" id="g74"><g transform="translate(125.16,79.11)" id="g80"><path id="path82" style="fill:#ffffff;fill-opacity:1;fill-rule:evenodd;stroke:none" d="m 0,0 c 0,-0.845 0.698,-1.53 1.56,-1.53 0.862,0 1.56,0.685 1.56,1.53 0,0.845 -0.698,1.53 -1.56,1.53 C 0.698,1.53 0,0.845 0,0"/></g></g></g><g id="g84"><g clip-path="url(#clipPath88)" id="g86"><g transform="translate(97.2266,50.6744)" id="g92"><path id="path94" style="fill:#e43404;fill-opacity:1;fill-rule:evenodd;stroke:none" d="m 0,0 c 2.874,1.348 9.162,-2.715 11.519,-5.923 2.357,-3.208 4.208,-6.483 2.625,-13.325 -1.584,-6.842 -7.083,-8.818 -9.879,-9.729 -2.795,-0.911 -5.261,1.142 -6.895,4.261 -1.633,3.119 -3.531,6.585 -3.093,10.704 C -5.284,-9.893 -2.874,-1.348 0,0"/></g></g></g><g id="g96"><g clip-path="url(#clipPath100)" id="g98"><g transform="translate(173.34,76.89)" id="g104"><path id="path106" style="fill:#000000;fill-opacity:1;fill-rule:evenodd;stroke:none" d="m 0,0 c 0,-3.43 2.767,-6.21 6.18,-6.21 3.413,0 6.18,2.78 6.18,6.21 0,3.43 -2.767,6.21 -6.18,6.21 C 2.767,6.21 0,3.43 0,0"/></g></g></g><g id="g108"><g clip-path="url(#clipPath112)" id="g110"><g transform="translate(179.22,79.11)" id="g116"><path id="path118" style="fill:#ffffff;fill-opacity:1;fill-rule:evenodd;stroke:none" d="m 0,0 c 0,-0.845 0.698,-1.53 1.56,-1.53 0.862,0 1.56,0.685 1.56,1.53 0,0.845 -0.698,1.53 -1.56,1.53 C 0.698,1.53 0,0.845 0,0"/></g></g></g><g id="g120"><g clip-path="url(#clipPath124)" id="g122"><g transform="translate(211.3936,30.1025)" id="g128"><path id="path130" style="fill:#e43404;fill-opacity:1;fill-rule:evenodd;stroke:none" d="m 0,0 c 0.803,4.674 -0.609,15.104 -2.967,17.81 -2.359,2.706 -8.262,0.371 -11.182,-1.574 -2.921,-1.946 -5.744,-6.736 -6.342,-10.097 -0.598,-3.361 0.481,-7.309 2.755,-10.069 2.275,-2.759 7.054,-6.969 9.952,-6.302 C -5.376,-9.386 -0.803,-4.674 0,0"/></g></g></g><g id="g132"><g clip-path="url(#clipPath136)" id="g134"><g transform="translate(208.86,161.76)" id="g140"><path id="path142" style="fill:#050505;fill-opacity:1;fill-rule:evenodd;stroke:none" d="m 0,0 c -10.234,1.336 -13.289,2.484 -19.38,5.13 0.294,8.09 5.485,30.535 9.502,30.268 C -6.679,35.45 -0.263,5.92 0,0"/></g></g></g><g id="g144"><g clip-path="url(#clipPath148)" id="g146"><g transform="translate(126,105.74)" id="g152"><path id="path154" style="fill:#ffd449;fill-opacity:1;fill-rule:evenodd;stroke:none" d="m 0,0 c -4.902,6.149 -36.098,20.763 -54.548,26.199 -18.449,5.435 -49.467,7.574 -56.151,6.416 -6.685,-1.159 8.913,-12.03 17.647,-17.11 8.735,-5.079 11.855,-8.109 25.135,-13.366 13.28,-5.258 43.228,-18.179 54.548,-18.179 L 0,0 Z"/></g></g></g><g id="g156"><g clip-path="url(#clipPath160)" id="g158"><g transform="translate(40.6687,116.52)" id="g164"><path id="path166" style="fill:#050505;fill-opacity:1;fill-rule:evenodd;stroke:none" d="M 0,0 C 5.48,2.157 10.623,12.545 10.931,19.562 3.364,22.455 -26.146,23.989 -27.968,20.729 -29.79,17.469 -6.452,1.632 0,0"/></g></g></g></g></svg>